{
  "title": "Avengers Assemble S03E15 A Friend in Need 1080P WEB-DL DD5 1 H 2",
  "uid": 15815421,
  "size": 927747539,
  "categoryP": "video",
  "categoryS": "hd___tv_shows",
  "magnet": "?xt=urn:btih:630fc0e9bd355a25fb0ceae4b917e3fb89fd509e&amp;dn=Avengers+Assemble+S03E15+A+Friend+in+Need+1080P+WEB-DL+DD5+1+H+2&amp;tr=udp%3A%2F%2Ftracker.leechers-paradise.org%3A6969&amp;tr=udp%3A%2F%2Fzer0day.ch%3A1337&amp;tr=udp%3A%2F%2Fopen.demonii.com%3A1337&amp;tr=udp%3A%2F%2Ftracker.coppersurfer.tk%3A6969&amp;tr=udp%3A%2F%2Fexodus.desync.com%3A6969",
  "seeders": 38,
  "leechers": 3,
  "uploader": "jmanwf",
  "files": 1,
  "time": 1473676730,
  "description": "Thor teaches the Vision the value of friendship by taking him to Asgard where together they must fight an Ultron-controlled Destroyer.\r\n\r\n\r\nVideo\r\nID : 3\r\nFormat : AVC\r\nFormat/Info : Advanced Video Codec\r\nFormat profile :   \r\nFormat settings, CABAC : Yes\r\nFormat settings, ReFrames : 4 frames\r\nCodec ID : V_MPEG4/ISO/AVC\r\nDuration : 22 min 3 s\r\nBit rate : 5 094 kb/s\r\nWidth : 1 920 pixels\r\nHeight : 1 080 pixels\r\nDisplay aspect ratio : 16:9\r\nFrame rate mode : Constant\r\nFrame rate : 23.976 (23976/1000) FPS\r\nColor space : YUV\r\nChroma subsampling : 4:2:0\r\nBit depth : 8 bits\r\nScan type : Progressive\r\nBits/(Pixel*Frame) : 0.102\r\nStream size : 804 MiB (91%)\r\nLanguage : English\r\nDefault : Yes\r\nForced : No\r\nColor range : Limited\r\nColor primaries : BT.709\r\nTransfer characteristics : BT.709\r\nMatrix coefficients : BT.709\r\n\r\nAudio #1\r\nID : 1\r\nFormat : AAC\r\nFormat/Info : Advanced Audio Codec\r\nFormat profile : LC\r\nCodec ID : A_AAC\r\nDuration : 22 min 3 s\r\nBit rate : 127 kb/s\r\nChannel(s) : 2 channels\r\nChannel positions : Front: L R\r\nSampling rate : 48.0 kHz\r\nFrame rate : 46.875 FPS (1024 spf)\r\nCompression mode : Lossy\r\nStream size : 20.0 MiB (2%)\r\nLanguage : English\r\nDefault : Yes\r\nForced : No\r\n\r\nAudio #2\r\nID : 2\r\nFormat : AC-3\r\nFormat/Info : Audio Coding 3\r\nMode extension : CM (complete main)\r\nFormat settings, Endianness : Big\r\nCodec ID : A_AC3\r\nDuration : 22 min 3 s\r\nBit rate mode : Constant\r\nBit rate : 384 kb/s\r\nChannel(s) : 6 channels\r\nChannel positions : Front: L C R, Side: L R, LFE\r\nSampling rate : 48.0 kHz\r\nFrame rate : 31.250 FPS (1536 spf)\r\nCompression mode : Lossy\r\nStream size : 60.6 MiB (7%)\r\nLanguage : English\r\nDefault : No\r\nForced : No\r\n\r\nText\r\nID : 4\r\nFormat : UTF-8\r\nCodec ID : S_TEXT/UTF8\r\nCodec ID/Info : UTF-8 Plain Text\r\nDuration : 21 min 32 s\r\nBit rate : 94 b/s\r\nCount of elements : 371\r\nStream size : 14.9 KiB (0%)\r\nLanguage : English\r\nDefault : Yes\r\nForced : No",
  "parsed": {
    "xt": "urn:btih:630fc0e9bd355a25fb0ceae4b917e3fb89fd509e",
    "dn": "Avengers Assemble S03E15 A Friend in Need 1080P WEB-DL DD5 1 H 2",
    "tr": [
      "udp://exodus.desync.com:6969",
      "udp://open.demonii.com:1337",
      "udp://tracker.coppersurfer.tk:6969",
      "udp://tracker.leechers-paradise.org:6969",
      "udp://zer0day.ch:1337"
    ],
    "infoHash": "630fc0e9bd355a25fb0ceae4b917e3fb89fd509e",
    "infoHashBuffer": {
      "type": "Buffer",
      "data": [
        99,
        15,
        192,
        233,
        189,
        53,
        90,
        37,
        251,
        12,
        234,
        228,
        185,
        23,
        227,
        251,
        137,
        253,
        80,
        158
      ]
    },
    "name": "Avengers Assemble S03E15 A Friend in Need 1080P WEB-DL DD5 1 H 2",
    "announce": [
      "udp://exodus.desync.com:6969",
      "udp://open.demonii.com:1337",
      "udp://tracker.coppersurfer.tk:6969",
      "udp://tracker.leechers-paradise.org:6969",
      "udp://zer0day.ch:1337"
    ],
    "urlList": []
  },
  "previous": 49,
  "peers": 62,
  "last_updated": "2016-12-27T02:05:49.935Z"
}